<svg width="116" height="19" viewBox="0 0 116 19" fill="none" xmlns="http://www.w3.org/2000/svg">
<path d="M0.992 1.2H4.88V14.832H13.304V18H0.992V1.2ZM15.4764 1.2H19.3644V18H15.4764V1.2ZM27.2394 4.32V8.76H35.0154V11.88H27.2394V18H23.3514V1.2H36.0474V4.32H27.2394ZM51.6875 14.88V18H38.6795V1.2H51.3755V4.32H42.5435V7.968H50.3435V10.992H42.5435V14.88H51.6875Z" fill="#C90404"/>
<path d="M72.9299 9.336H76.4819V16.152C75.5699 16.84 74.5139 17.368 73.3139 17.736C72.1139 18.104 70.9059 18.288 69.6899 18.288C67.9459 18.288 66.3779 17.92 64.9859 17.184C63.5939 16.432 62.4979 15.4 61.6979 14.088C60.9139 12.76 60.5219 11.264 60.5219 9.6C60.5219 7.936 60.9139 6.448 61.6979 5.136C62.4979 3.808 63.6019 2.776 65.0099 2.04C66.4179 1.288 68.0019 0.912 69.7619 0.912C71.2339 0.912 72.5699 1.16 73.7699 1.656C74.9699 2.152 75.9779 2.872 76.7939 3.816L74.2979 6.12C73.0979 4.856 71.6499 4.224 69.9539 4.224C68.8819 4.224 67.9299 4.448 67.0979 4.896C66.2659 5.344 65.6179 5.976 65.1539 6.792C64.6899 7.608 64.4579 8.544 64.4579 9.6C64.4579 10.64 64.6899 11.568 65.1539 12.384C65.6179 13.2 66.2579 13.84 67.0739 14.304C67.9059 14.752 68.8499 14.976 69.9059 14.976C71.0259 14.976 72.0339 14.736 72.9299 14.256V9.336ZM88.1576 12.048V18H84.2696V12L77.7656 1.2H81.8936L86.3816 8.664L90.8696 1.2H94.6856L88.1576 12.048ZM111.436 18L111.412 7.92L106.468 16.224H104.716L99.7963 8.136V18H96.1483V1.2H99.3643L105.652 11.64L111.844 1.2H115.036L115.084 18H111.436Z" fill="white"/>
</svg>
