<svg width="15" height="15" viewBox="0 0 15 15" fill="none" xmlns="http://www.w3.org/2000/svg">
<path d="M11.2803 8.21975C11.2107 8.15004 11.128 8.09474 11.037 8.057C10.946 8.01927 10.8485 7.99985 10.75 7.99985C10.6515 7.99985 10.554 8.01927 10.463 8.057C10.372 8.09474 10.2893 8.15004 10.2198 8.21975L9.02426 9.41525C8.47001 9.25025 7.43576 8.87525 6.78026 8.21975C6.12476 7.56425 5.74976 6.53 5.58476 5.97575L6.78026 4.78025C6.84997 4.71066 6.90527 4.628 6.943 4.53702C6.98073 4.44603 7.00016 4.3485 7.00016 4.25C7.00016 4.1515 6.98073 4.05396 6.943 3.96298C6.90527 3.87199 6.84997 3.78934 6.78026 3.71975L3.78026 0.719748C3.71067 0.650039 3.62801 0.594736 3.53703 0.557003C3.44604 0.519269 3.34851 0.499847 3.25001 0.499847C3.15151 0.499847 3.05397 0.519269 2.96299 0.557003C2.872 0.594736 2.78935 0.650039 2.71976 0.719748L0.685756 2.75375C0.400756 3.03875 0.240256 3.43025 0.246256 3.83C0.263506 4.898 0.546256 8.6075 3.46976 11.531C6.39326 14.4545 10.1028 14.7365 11.1715 14.7545H11.1925C11.5885 14.7545 11.9628 14.5985 12.2463 14.315L14.2803 12.281C14.35 12.2114 14.4053 12.1288 14.443 12.0378C14.4807 11.9468 14.5002 11.8492 14.5002 11.7507C14.5002 11.6522 14.4807 11.5547 14.443 11.4637C14.4053 11.3727 14.35 11.2901 14.2803 11.2205L11.2803 8.21975ZM11.185 13.2537C10.249 13.238 7.04651 12.9867 4.53026 10.4697C2.00576 7.94525 1.76126 4.7315 1.74626 3.81425L3.25001 2.3105L5.18951 4.25L4.21976 5.21975C4.1316 5.30784 4.06679 5.4165 4.03117 5.53592C3.99555 5.65535 3.99026 5.78176 4.01576 5.90375C4.03376 5.99 4.47401 8.03525 5.71901 9.28025C6.96401 10.5252 9.00926 10.9655 9.09551 10.9835C9.21741 11.0097 9.34396 11.0048 9.46349 10.9693C9.58302 10.9338 9.6917 10.8688 9.77951 10.7802L10.75 9.8105L12.6895 11.75L11.185 13.2537Z" fill="white"/>
</svg>
